PathFileType	4	(X/Y/Z)	C:/Users/opensim2020/Desktop/walking_exp_matlab/subject06_walking14_straight_01.trc																																																																																																																																					
DataRate	CameraRate	NumFrames	NumMarkers	Units	OrigDataRate	OrigDataStartFrame	OrigNumFrames																																																																																																																																	
100	100	5	45	mm	100	911	203																																																																																																																																	
Frame#	Time	LFHD			RFHD			LBHD			RBHD			C7			T10			CLAV			STRN			RBAK			LSHO			LUPA			LELB			LFRM			LWRA			LWRB			LFIN			RSHO			RUPA			RELB			RFRM			RWRA			RWRB			RFIN			LASI			RASI			LPSI			RPSI			LTHI			LKNE			LTIB			LANK			LHEE			LTOE			RTHI			RKNE			RTIB			RANK			RHEE			RTOE			*39			*40			*41			*42			*43			*44		
		X1	Y1	Z1	X2	Y2	Z2	X3	Y3	Z3	X4	Y4	Z4	X5	Y5	Z5	X6	Y6	Z6	X7	Y7	Z7	X8	Y8	Z8	X9	Y9	Z9	X10	Y10	Z10	X11	Y11	Z11	X12	Y12	Z12	X13	Y13	Z13	X14	Y14	Z14	X15	Y15	Z15	X16	Y16	Z16	X17	Y17	Z17	X18	Y18	Z18	X19	Y19	Z19	X20	Y20	Z20	X21	Y21	Z21	X22	Y22	Z22	X23	Y23	Z23	X24	Y24	Z24	X25	Y25	Z25	X26	Y26	Z26	X27	Y27	Z27	X28	Y28	Z28	X29	Y29	Z29	X30	Y30	Z30	X31	Y31	Z31	X32	Y32	Z32	X33	Y33	Z33	X34	Y34	Z34	X35	Y35	Z35	X36	Y36	Z36	X37	Y37	Z37	X38	Y38	Z38	X39	Y39	Z39	X40	Y40	Z40	X41	Y41	Z41	X42	Y42	Z42	X43	Y43	Z43	X44	Y44	Z44	X45	Y45	Z45
																																																																																																																																								
102	1.01	-277.06396	1663.32959	1380.38245	-271.69913	1651.50757	1511.97168	-413.08661	1616.07422	1385.94666	-406.04092	1609.67798	1515.20435	-420.20969	1456.47168	1442.56775	-462.81146	1128.46155	1451.75732	-311.81778	1375.36304	1439.08569	-277.43054	1198.9054	1435.32251	-493.63669	1288.67334	1528.00354	-374.28708	1408.78931	1278.86914	-418.47113	1210.33203	1212.17078	-448.2933	1101.90857	1205.25159	-456.5593	952.74341	1177.70886	-408.81039	827.71149	1203.14575	-476.86047	835.16583	1180.13306	-451.6102	747.8667	1169.49927	-350.21365	1411.7229	1599.90027	-366.05261	1217.16858	1698.77783	-336.17407	1100.79028	1719.52905	-278.6601	997.39227	1737.83032	-168.01761	896.25482	1702.53955	-215.96742	875.14972	1744.25562	-150.26338	822.47821	1745.57947	-286.34665	963.90137	1347.96997	-299.05688	966.71167	1565.8844	-446.42249	992.00922	1365.85425	-448.23972	998.73328	1534.30981	-295.82663	653.96082	1282.68665	-246.88132	499.81873	1313.25232	-260.97379	246.26106	1318.54065	-240.69551	74.41528	1355.31323	-272.34479	58.01834	1406.87683	-97.03522	51.81247	1340.64478	-395.62772	635.00653	1602.79858	-414.62408	510.15454	1579.3374	-526.72113	263.55878	1561.70435	-579.02716	87.08547	1502.65942	-621.08514	70.81929	1455.66394	-430.69702	36.68234	1505.00208	-372.38403	1706.83154	1444.3197	NaN	NaN	NaN	NaN	NaN	NaN	NaN	NaN	NaN	NaN	NaN	NaN	NaN	NaN	NaN
103	1.02	-266.75397	1661.78796	1379.87988	-261.37857	1649.93884	1511.47302	-402.88266	1614.8291	1385.43079	-395.8678	1608.41418	1514.729	-410.42065	1455.12036	1442.15552	-452.61368	1126.7937	1451.23108	-301.84891	1374.01733	1438.64368	-267.40076	1197.54053	1434.94348	-483.66388	1287.28088	1527.52136	-364.53717	1407.35815	1278.37842	-410.12488	1209.34436	1211.74097	-440.97739	1101.20789	1205.01123	-450.5632	952.13635	1177.46472	-403.79257	826.68005	1202.74658	-471.81528	834.75806	1179.94299	-447.32382	747.22626	1169.38062	-340.3894	1410.45862	1599.38403	-355.94861	1216.0072	1698.40405	-325.6105	1099.88269	1719.3678	-266.54532	997.40778	1737.72192	-154.47699	898.1731	1702.21973	-201.98508	876.26453	1743.95801	-135.56166	824.73773	1745.18958	-275.98828	962.28394	1347.9613	-289.05865	965.43884	1565.72717	-436.15314	990.60864	1365.32703	-438.30988	997.68036	1533.92859	-287.41403	651.84448	1281.95874	-238.07744	497.98489	1312.78735	-240.3363	244.08002	1318.74817	-211.7639	73.58199	1355.9845	-242.66022	56.52431	1407.7533	-66.40932	54.35981	1343.25366	-388.26318	634.32196	1602.87585	-408.31207	509.54892	1579.63477	-523.77466	264.26535	1561.83337	-578.401	88.38876	1502.72437	-620.41217	72.56644	1455.67188	-430.65115	36.68408	1505.00452	-361.98032	1705.51978	1443.81909	NaN	NaN	NaN	NaN	NaN	NaN	NaN	NaN	NaN	NaN	NaN	NaN	NaN	NaN	NaN
104	1.03	-256.78192	1660.09998	1379.2998	-251.11461	1648.35303	1510.91394	-392.70911	1613.50598	1384.91455	-385.61002	1607.0675	1514.14917	-400.39536	1453.55188	1441.59021	-442.52087	1125.30334	1450.76135	-291.85242	1372.50208	1438.03723	-257.26743	1196.13989	1434.57849	-473.55661	1285.67554	1527.00439	-354.74847	1405.84009	1277.86084	-401.51852	1208.28931	1211.27417	-433.27615	1100.28821	1204.79932	-443.73694	951.2196	1177.30078	-398.17868	825.59338	1202.29419	-466.18423	834.05322	1179.63159	-442.58267	746.43671	1169.00928	-330.59967	1409.13916	1598.82373	-345.84607	1214.75769	1697.92151	-315.32568	1098.85046	1718.94958	-254.87254	997.23608	1737.45374	-141.27052	899.81097	1701.84314	-188.53752	877.07947	1743.34668	-121.15685	826.54877	1744.7168	-265.40967	960.69287	1347.93237	-279.12018	964.12	1565.75928	-425.60284	988.99622	1364.77283	-428.3175	996.43622	1533.47742	-278.85999	649.72522	1281.16956	-229.01564	496.13971	1312.27271	-220.72044	242.38145	1319.06775	-184.14972	73.28358	1357.20251	-214.57761	55.77982	1408.93347	-37.50945	58.0326	1346.03345	-380.4588	633.50525	1602.99243	-401.50354	508.75925	1579.83899	-520.64331	264.96887	1562.02332	-577.66852	89.86618	1502.79724	-619.91632	74.68745	1455.77808	-430.58295	36.60716	1505.04114	-351.65085	1704.10718	1443.25867	NaN	NaN	NaN	NaN	NaN	NaN	NaN	NaN	NaN	NaN	NaN	NaN	NaN	NaN	NaN
105	1.04	-246.17656	1658.58679	1378.61401	-240.78983	1646.74854	1510.27039	-382.41818	1612.11023	1384.23694	-375.35034	1605.63782	1513.50378	-390.03531	1451.91943	1440.8772	-432.21472	1123.64648	1450.13831	-281.78064	1370.98962	1437.46936	-247.0498	1194.70764	1434.22595	-463.51694	1284.05164	1526.41394	-344.87527	1404.26123	1277.28943	-392.84268	1207.13916	1210.63184	-425.12021	1099.34839	1204.18701	-437.17447	950.50769	1176.69714	-392.03928	824.38446	1201.74573	-460.27487	833.43561	1179.21973	-437.22745	745.49536	1168.63391	-320.68781	1407.7782	1598.2052	-335.69321	1213.44385	1697.39844	-304.68228	1097.72766	1718.62695	-243.44444	996.84741	1736.87903	-128.38774	901.1817	1701.41211	-175.32664	877.65204	1742.81567	-107.28901	828.14075	1744.28113	-254.76221	959.08752	1347.94104	-269.0535	962.73315	1565.68738	-414.93771	987.3667	1364.16321	-418.22223	995.10065	1532.90869	-269.74783	647.96582	1280.06238	-219.96748	494.30624	1311.60352	-202.26129	241.0627	1319.59363	-158.13245	73.51471	1358.39209	-187.94199	55.23892	1410.03284	-10.12193	62.34978	1349.12756	-372.18826	632.59467	1603.17639	-394.0058	507.85376	1580.01892	-516.96997	265.69489	1562.2207	-576.68097	91.40737	1502.92639	-619.14478	76.85181	1455.91443	-430.47046	36.58556	1504.99316	-341.18921	1702.64746	1442.61292	NaN	NaN	NaN	NaN	NaN	NaN	NaN	NaN	NaN	NaN	NaN	NaN	NaN	NaN	NaN
106	1.05	-235.85645	1657.01331	1377.85718	-230.41344	1645.2157	1509.56885	-372.13052	1610.62805	1383.51343	-365.07312	1604.18823	1512.76501	-379.80444	1450.34814	1440.10522	-422.00153	1122.00806	1449.42468	-271.50052	1369.4812	1436.80469	-236.72861	1193.17969	1433.8606	-453.60281	1282.52026	1525.77734	-334.86325	1402.64014	1276.58923	-383.91837	1205.87927	1210.03259	-416.9455	1098.27197	1203.8772	-430.25824	949.60461	1176.07141	-385.4812	823.11328	1201.18652	-453.48196	832.49097	1178.75391	-431.1532	744.47253	1168.15125	-310.70242	1406.41235	1597.52563	-325.55881	1212.06567	1696.69409	-294.25092	1096.55774	1718.04492	-232.07523	996.39734	1736.39807	-115.82908	902.23291	1700.90796	-162.56595	878.07007	1742.22095	-93.95936	829.57709	1743.83105	-243.94624	957.5509	1347.96924	-258.97034	961.31897	1565.72083	-404.31116	985.83344	1363.37524	-408.20596	993.71979	1532.15381	-260.03674	646.47375	1278.97961	-211.12215	492.30145	1311.2135	-184.6655	240.01028	1320.38794	-133.72133	73.98005	1359.29358	-163.71947	54.93951	1410.71448	15.15286	67.50716	1352.42773	-363.61322	631.64789	1603.32666	-386.07263	506.90286	1580.2655	-512.85297	266.4906	1562.14343	-575.7135	93.23184	1503.22314	-618.29095	79.30819	1456.17883	-430.30936	36.44009	1504.92627	-330.85535	1701.15222	1441.87073	NaN	NaN	NaN	NaN	NaN	NaN	NaN	NaN	NaN	NaN	NaN	NaN	NaN	NaN	NaN
